<svg xmlns="http://www.w3.org/2000/svg" width="1440" height="900"><path d="M720,385L720,514L849,385Z" fill="#47b3c3" stroke="#47b3c3" stroke-width="1.51"/><path d="M720,514L849,514L849,385Z" fill="#38a9c3" stroke="#38a9c3" stroke-width="1.51"/><path d="M720,385L590,385L720,514Z" fill="#53bac2" stroke="#53bac2" stroke-width="1.51"/><path d="M590,385L590,514L720,514Z" fill="#52b8c2" stroke="#52b8c2" stroke-width="1.51"/><path d="M849,385L720,255L720,385Z" fill="#61bcbf" stroke="#61bcbf" stroke-width="1.51"/><path d="M720,385L720,255L590,385Z" fill="#6ac3bf" stroke="#6ac3bf" stroke-width="1.51"/><path d="M720,514L720,644L849,514Z" fill="#30a0c2" stroke="#30a0c2" stroke-width="1.51"/><path d="M590,514L720,644L720,514Z" fill="#3fa7c1" stroke="#3fa7c1" stroke-width="1.51"/><path d="M849,385L849,255L720,255Z" fill="#70bdbe" stroke="#70bdbe" stroke-width="1.51"/><path d="M720,644L849,644L849,514Z" fill="#2c91bd" stroke="#2c91bd" stroke-width="1.51"/><path d="M979,514L979,385L849,514Z" fill="#319bbf" stroke="#319bbf" stroke-width="1.51"/><path d="M849,514L979,385L849,385Z" fill="#3da6c1" stroke="#3da6c1" stroke-width="1.51"/><path d="M849,385L979,385L849,255Z" fill="#5aafbe" stroke="#5aafbe" stroke-width="1.51"/><path d="M849,644L979,514L849,514Z" fill="#2093c0" stroke="#2093c0" stroke-width="1.51"/><path d="M720,255L590,255L590,385Z" fill="#81ccbd" stroke="#81ccbd" stroke-width="1.51"/><path d="M590,514L590,644L720,644Z" fill="#499fbc" stroke="#499fbc" stroke-width="1.51"/><path d="M979,385L979,255L849,255Z" fill="#6baebb" stroke="#6baebb" stroke-width="1.51"/><path d="M849,644L979,644L979,514Z" fill="#2283ba" stroke="#2283ba" stroke-width="1.51"/><path d="M979,385L1108,385L979,255Z" fill="#5a9cb6" stroke="#5a9cb6" stroke-width="1.51"/><path d="M979,514L1108,385L979,385Z" fill="#3f93b9" stroke="#3f93b9" stroke-width="1.51"/><path d="M1108,514L1108,385L979,514Z" fill="#3488b7" stroke="#3488b7" stroke-width="1.51"/><path d="M979,644L1108,514L979,514Z" fill="#2380b8" stroke="#2380b8" stroke-width="1.51"/><path d="M590,385L460,385L590,514Z" fill="#69c3bf" stroke="#69c3bf" stroke-width="1.51"/><path d="M590,514L460,514L590,644Z" fill="#5aafbe" stroke="#5aafbe" stroke-width="1.51"/><path d="M590,255L460,385L590,385Z" fill="#7dccbb" stroke="#7dccbb" stroke-width="1.51"/><path d="M460,385L460,514L590,514Z" fill="#6cc1bf" stroke="#6cc1bf" stroke-width="1.51"/><path d="M720,255L720,125L590,255Z" fill="#98d3bc" stroke="#98d3bc" stroke-width="1.51"/><path d="M849,255L720,125L720,255Z" fill="#90cbbc" stroke="#90cbbc" stroke-width="1.51"/><path d="M849,125L720,125L849,255Z" fill="#96cabc" stroke="#96cabc" stroke-width="1.51"/><path d="M720,644L720,774L849,644Z" fill="#3582b5" stroke="#3582b5" stroke-width="1.51"/><path d="M849,644L849,774L979,644Z" fill="#2576b3" stroke="#2576b3" stroke-width="1.51"/><path d="M590,644L720,774L720,644Z" fill="#4289b4" stroke="#4289b4" stroke-width="1.51"/><path d="M979,255L849,125L849,255Z" fill="#8abebb" stroke="#8abebb" stroke-width="1.51"/><path d="M720,774L849,774L849,644Z" fill="#3376b0" stroke="#3376b0" stroke-width="1.51"/><path d="M1108,385L1108,255L979,255Z" fill="#6a9ab3" stroke="#6a9ab3" stroke-width="1.51"/><path d="M979,255L979,125L849,125Z" fill="#91bab9" stroke="#91bab9" stroke-width="1.51"/><path d="M979,774L1108,644L979,644Z" fill="#2463ab" stroke="#2463ab" stroke-width="1.51"/><path d="M979,644L1108,644L1108,514Z" fill="#2470b1" stroke="#2470b1" stroke-width="1.51"/><path d="M590,255L460,255L460,385Z" fill="#95d5ba" stroke="#95d5ba" stroke-width="1.51"/><path d="M590,125L460,255L590,255Z" fill="#a7dbb8" stroke="#a7dbb8" stroke-width="1.51"/><path d="M590,644L590,774L720,774Z" fill="#4d83b0" stroke="#4d83b0" stroke-width="1.51"/><path d="M460,514L460,644L590,644Z" fill="#65a8ba" stroke="#65a8ba" stroke-width="1.51"/><path d="M720,125L590,125L590,255Z" fill="#a5d9ba" stroke="#a5d9ba" stroke-width="1.51"/><path d="M460,644L590,774L590,644Z" fill="#5a90b1" stroke="#5a90b1" stroke-width="1.51"/><path d="M1108,255L979,125L979,255Z" fill="#88aab4" stroke="#88aab4" stroke-width="1.51"/><path d="M849,774L979,774L979,644Z" fill="#2868ad" stroke="#2868ad" stroke-width="1.51"/><path d="M460,385L331,385L460,514Z" fill="#88cdbc" stroke="#88cdbc" stroke-width="1.51"/><path d="M460,514L331,514L460,644Z" fill="#7bb8bc" stroke="#7bb8bc" stroke-width="1.51"/><path d="M460,255L331,385L460,385Z" fill="#99d6b9" stroke="#99d6b9" stroke-width="1.51"/><path d="M331,385L331,514L460,514Z" fill="#8bcbbd" stroke="#8bcbbd" stroke-width="1.51"/><path d="M720,125L720,-4L590,125Z" fill="#addac0" stroke="#addac0" stroke-width="1.51"/><path d="M849,125L720,-4L720,125Z" fill="#a6d3c1" stroke="#a6d3c1" stroke-width="1.51"/><path d="M849,-4L720,-4L849,125Z" fill="#a6d0c7" stroke="#a6d0c7" stroke-width="1.51"/><path d="M590,774L720,903L720,774Z" fill="#4372a3" stroke="#4372a3" stroke-width="1.51"/><path d="M720,774L720,903L849,774Z" fill="#366ca4" stroke="#366ca4" stroke-width="1.51"/><path d="M849,774L849,903L979,774Z" fill="#2860a2" stroke="#2860a2" stroke-width="1.51"/><path d="M979,125L849,-4L849,125Z" fill="#9fc5c0" stroke="#9fc5c0" stroke-width="1.51"/><path d="M720,903L849,903L849,774Z" fill="#2c6297" stroke="#2c6297" stroke-width="1.51"/><path d="M1238,514L1238,385L1108,514Z" fill="#3a78af" stroke="#3a78af" stroke-width="1.51"/><path d="M1108,514L1238,385L1108,385Z" fill="#4383b2" stroke="#4383b2" stroke-width="1.51"/><path d="M1108,385L1238,385L1108,255Z" fill="#5b8baf" stroke="#5b8baf" stroke-width="1.51"/><path d="M1108,255L1108,125L979,125Z" fill="#8ea6b1" stroke="#8ea6b1" stroke-width="1.51"/><path d="M1238,644L1238,514L1108,644Z" fill="#2961aa" stroke="#2961aa" stroke-width="1.51"/><path d="M1108,644L1238,514L1108,514Z" fill="#2970b0" stroke="#2970b0" stroke-width="1.51"/><path d="M979,125L979,-4L849,-4Z" fill="#a0c0c4" stroke="#a0c0c4" stroke-width="1.51"/><path d="M1238,255L1108,125L1108,255Z" fill="#8698ac" stroke="#8698ac" stroke-width="1.51"/><path d="M979,774L1108,774L1108,644Z" fill="#2556a4" stroke="#2556a4" stroke-width="1.51"/><path d="M979,903L1108,774L979,774Z" fill="#244e9a" stroke="#244e9a" stroke-width="1.51"/><path d="M460,255L331,255L331,385Z" fill="#afdfb7" stroke="#afdfb7" stroke-width="1.51"/><path d="M590,125L460,125L460,255Z" fill="#b6e2b7" stroke="#b6e2b7" stroke-width="1.51"/><path d="M590,-4L460,125L590,125Z" fill="#bbe3bc" stroke="#bbe3bc" stroke-width="1.51"/><path d="M460,644L460,774L590,774Z" fill="#658bad" stroke="#658bad" stroke-width="1.51"/><path d="M590,774L590,903L720,903Z" fill="#446f96" stroke="#446f96" stroke-width="1.51"/><path d="M331,644L460,774L460,644Z" fill="#7899b0" stroke="#7899b0" stroke-width="1.51"/><path d="M460,125L331,255L460,255Z" fill="#bfe5b5" stroke="#bfe5b5" stroke-width="1.51"/><path d="M331,514L331,644L460,644Z" fill="#83b1b8" stroke="#83b1b8" stroke-width="1.51"/><path d="M720,-4L590,-4L590,125Z" fill="#b4dfc6" stroke="#b4dfc6" stroke-width="1.51"/><path d="M460,774L590,903L590,774Z" fill="#587aa1" stroke="#587aa1" stroke-width="1.51"/><path d="M1108,125L979,-4L979,125Z" fill="#9cb1b8" stroke="#9cb1b8" stroke-width="1.51"/><path d="M849,903L979,903L979,774Z" fill="#215593" stroke="#215593" stroke-width="1.51"/><path d="M1238,385L1238,255L1108,255Z" fill="#6b8aac" stroke="#6b8aac" stroke-width="1.51"/><path d="M1108,774L1238,644L1108,644Z" fill="#2554a3" stroke="#2554a3" stroke-width="1.51"/><path d="M1108,125L1108,-4L979,-4Z" fill="#9dabbc" stroke="#9dabbc" stroke-width="1.51"/><path d="M1238,125L1108,-4L1108,125Z" fill="#9a9fb1" stroke="#9a9fb1" stroke-width="1.51"/><path d="M1108,774L1238,774L1238,644Z" fill="#26469d" stroke="#26469d" stroke-width="1.51"/><path d="M979,903L1108,903L1108,774Z" fill="#1d438b" stroke="#1d438b" stroke-width="1.51"/><path d="M460,125L331,125L331,255Z" fill="#ceecb4" stroke="#ceecb4" stroke-width="1.51"/><path d="M460,-4L331,125L460,125Z" fill="#d3edb9" stroke="#d3edb9" stroke-width="1.51"/><path d="M460,774L460,903L590,903Z" fill="#5b7794" stroke="#5b7794" stroke-width="1.51"/><path d="M331,644L331,774L460,774Z" fill="#8194ac" stroke="#8194ac" stroke-width="1.51"/><path d="M590,-4L460,-4L460,125Z" fill="#c6e8c3" stroke="#c6e8c3" stroke-width="1.51"/><path d="M331,774L460,903L460,774Z" fill="#73829f" stroke="#73829f" stroke-width="1.51"/><path d="M1238,255L1238,125L1108,125Z" fill="#8e95aa" stroke="#8e95aa" stroke-width="1.51"/><path d="M1108,903L1238,774L1108,774Z" fill="#223e92" stroke="#223e92" stroke-width="1.51"/><path d="M1238,385L1367,385L1238,255Z" fill="#5b7ca5" stroke="#5b7ca5" stroke-width="1.51"/><path d="M1238,255L1367,255L1238,125Z" fill="#8489a3" stroke="#8489a3" stroke-width="1.51"/><path d="M1238,514L1367,385L1238,385Z" fill="#4474a8" stroke="#4474a8" stroke-width="1.51"/><path d="M1367,514L1367,385L1238,514Z" fill="#366ba0" stroke="#366ba0" stroke-width="1.51"/><path d="M1367,514L1238,514L1238,644Z" fill="#2b61a6" stroke="#2b61a6" stroke-width="1.51"/><path d="M1367,644L1367,514L1238,644Z" fill="#24559b" stroke="#24559b" stroke-width="1.51"/><path d="M331,255L201,385L331,385Z" fill="#adddb7" stroke="#adddb7" stroke-width="1.51"/><path d="M331,385L201,385L331,514Z" fill="#9dd4bb" stroke="#9dd4bb" stroke-width="1.51"/><path d="M331,514L201,514L331,644Z" fill="#91c0bb" stroke="#91c0bb" stroke-width="1.51"/><path d="M331,644L201,644L331,774Z" fill="#8ca0af" stroke="#8ca0af" stroke-width="1.51"/><path d="M201,255L201,385L331,255Z" fill="#bee5b6" stroke="#bee5b6" stroke-width="1.51"/><path d="M201,385L201,514L331,514Z" fill="#9cd0bc" stroke="#9cd0bc" stroke-width="1.51"/><path d="M590,-4L590,-134L460,-4Z" fill="#c1e6ca" stroke="#c1e6ca" stroke-width="1.51"/><path d="M720,-4L720,-134L590,-4Z" fill="#b2ddce" stroke="#b2ddce" stroke-width="1.51"/><path d="M849,-4L720,-134L720,-4Z" fill="#abd5ce" stroke="#abd5ce" stroke-width="1.51"/><path d="M849,-134L720,-134L849,-4Z" fill="#a8d1ce" stroke="#a8d1ce" stroke-width="1.51"/><path d="M849,-134L849,-4L979,-4Z" fill="#a4c7cd" stroke="#a4c7cd" stroke-width="1.51"/><path d="M590,903L720,1033L720,903Z" fill="#36678c" stroke="#36678c" stroke-width="1.51"/><path d="M720,903L720,1033L849,903Z" fill="#2a618c" stroke="#2a618c" stroke-width="1.51"/><path d="M849,903L849,1033L979,903Z" fill="#1b558a" stroke="#1b558a" stroke-width="1.51"/><path d="M979,903L979,1033L1108,903Z" fill="#184483" stroke="#184483" stroke-width="1.51"/><path d="M590,1033L720,1033L590,903Z" fill="#3e6a8b" stroke="#3e6a8b" stroke-width="1.51"/><path d="M979,-134L849,-134L979,-4Z" fill="#a3c1cb" stroke="#a3c1cb" stroke-width="1.51"/><path d="M720,1033L849,1033L849,903Z" fill="#255d8c" stroke="#255d8c" stroke-width="1.51"/><path d="M1367,385L1367,255L1238,255Z" fill="#657d9d" stroke="#657d9d" stroke-width="1.51"/><path d="M1238,774L1367,644L1238,644Z" fill="#244599" stroke="#244599" stroke-width="1.51"/><path d="M331,125L201,255L331,255Z" fill="#d2edb4" stroke="#d2edb4" stroke-width="1.51"/><path d="M201,514L201,644L331,644Z" fill="#94b7b7" stroke="#94b7b7" stroke-width="1.51"/><path d="M720,-134L590,-134L590,-4Z" fill="#b7e0cd" stroke="#b7e0cd" stroke-width="1.51"/><path d="M460,903L590,1033L590,903Z" fill="#4b6f89" stroke="#4b6f89" stroke-width="1.51"/><path d="M1108,-4L979,-134L979,-4Z" fill="#a0b3c6" stroke="#a0b3c6" stroke-width="1.51"/><path d="M1108,-134L979,-134L1108,-4Z" fill="#9facc3" stroke="#9facc3" stroke-width="1.51"/><path d="M1108,903L1238,903L1238,774Z" fill="#1d3484" stroke="#1d3484" stroke-width="1.51"/><path d="M849,1033L979,1033L979,903Z" fill="#1a5088" stroke="#1a5088" stroke-width="1.51"/><path d="M331,125L201,125L201,255Z" fill="#ddf2b3" stroke="#ddf2b3" stroke-width="1.51"/><path d="M460,-4L331,-4L331,125Z" fill="#def2c0" stroke="#def2c0" stroke-width="1.51"/><path d="M460,-134L331,-4L460,-4Z" fill="#d9f0c7" stroke="#d9f0c7" stroke-width="1.51"/><path d="M460,903L460,1033L590,1033Z" fill="#547289" stroke="#547289" stroke-width="1.51"/><path d="M331,774L331,903L460,903Z" fill="#757f93" stroke="#757f93" stroke-width="1.51"/><path d="M201,774L331,903L331,774Z" fill="#86889e" stroke="#86889e" stroke-width="1.51"/><path d="M1367,125L1238,-4L1238,125Z" fill="#968fa7" stroke="#968fa7" stroke-width="1.51"/><path d="M1238,125L1238,-4L1108,-4Z" fill="#9c9ab5" stroke="#9c9ab5" stroke-width="1.51"/><path d="M1108,1033L1238,903L1108,903Z" fill="#17357b" stroke="#17357b" stroke-width="1.51"/><path d="M1238,774L1367,774L1367,644Z" fill="#213a8e" stroke="#213a8e" stroke-width="1.51"/><path d="M1367,255L1367,125L1238,125Z" fill="#86889b" stroke="#86889b" stroke-width="1.51"/><path d="M1238,903L1367,774L1238,774Z" fill="#202f88" stroke="#202f88" stroke-width="1.51"/><path d="M1238,-4L1108,-134L1108,-4Z" fill="#9ea1be" stroke="#9ea1be" stroke-width="1.51"/><path d="M979,1033L1108,1033L1108,903Z" fill="#173e80" stroke="#173e80" stroke-width="1.51"/><path d="M331,-4L201,125L331,125Z" fill="#e5f5b7" stroke="#e5f5b7" stroke-width="1.51"/><path d="M201,644L201,774L331,774Z" fill="#9199ab" stroke="#9199ab" stroke-width="1.51"/><path d="M590,-134L460,-134L460,-4Z" fill="#c9e9c9" stroke="#c9e9c9" stroke-width="1.51"/><path d="M331,-4L201,-4L201,125Z" fill="#edf8be" stroke="#edf8be" stroke-width="1.51"/><path d="M331,1033L460,1033L331,903Z" fill="#6e7a87" stroke="#6e7a87" stroke-width="1.51"/><path d="M331,903L460,1033L460,903Z" fill="#667787" stroke="#667787" stroke-width="1.51"/><path d="M1367,385L1497,385L1367,255Z" fill="#4e718e" stroke="#4e718e" stroke-width="1.51"/><path d="M1367,255L1497,255L1367,125Z" fill="#767e8c" stroke="#767e8c" stroke-width="1.51"/><path d="M1367,514L1497,385L1367,385Z" fill="#376991" stroke="#376991" stroke-width="1.51"/><path d="M1497,514L1497,385L1367,514Z" fill="#2a628c" stroke="#2a628c" stroke-width="1.51"/><path d="M1497,514L1367,514L1367,644Z" fill="#1f588f" stroke="#1f588f" stroke-width="1.51"/><path d="M1497,644L1497,514L1367,644Z" fill="#1a4c87" stroke="#1a4c87" stroke-width="1.51"/><path d="M201,255L71,385L201,385Z" fill="#bae2b9" stroke="#bae2b9" stroke-width="1.51"/><path d="M201,385L71,385L201,514Z" fill="#aad9bd" stroke="#aad9bd" stroke-width="1.51"/><path d="M201,514L71,514L201,644Z" fill="#9ec4bd" stroke="#9ec4bd" stroke-width="1.51"/><path d="M201,644L71,644L201,774Z" fill="#99a5b1" stroke="#99a5b1" stroke-width="1.51"/><path d="M71,255L71,385L201,255Z" fill="#c8e9bd" stroke="#c8e9bd" stroke-width="1.51"/><path d="M71,385L71,514L201,514Z" fill="#a7d4c2" stroke="#a7d4c2" stroke-width="1.51"/><path d="M1497,125L1367,-4L1367,125Z" fill="#888590" stroke="#888590" stroke-width="1.51"/><path d="M1367,125L1367,-4L1238,-4Z" fill="#948da6" stroke="#948da6" stroke-width="1.51"/><path d="M1238,-4L1238,-134L1108,-134Z" fill="#9e9bbc" stroke="#9e9bbc" stroke-width="1.51"/><path d="M1367,774L1497,644L1367,644Z" fill="#193c83" stroke="#193c83" stroke-width="1.51"/><path d="M1238,903L1367,903L1367,774Z" fill="#172875" stroke="#172875" stroke-width="1.51"/><path d="M1238,1033L1367,903L1238,903Z" fill="#152772" stroke="#152772" stroke-width="1.51"/><path d="M1497,385L1497,255L1367,255Z" fill="#5a7388" stroke="#5a7388" stroke-width="1.51"/><path d="M1497,774L1497,644L1367,774Z" fill="#17327a" stroke="#17327a" stroke-width="1.51"/><path d="M201,125L71,255L201,255Z" fill="#def2b5" stroke="#def2b5" stroke-width="1.51"/><path d="M331,-134L201,-4L331,-4Z" fill="#ebf7c6" stroke="#ebf7c6" stroke-width="1.51"/><path d="M201,774L201,903L331,903Z" fill="#848492" stroke="#848492" stroke-width="1.51"/><path d="M71,774L201,903L201,774Z" fill="#928da0" stroke="#928da0" stroke-width="1.51"/><path d="M460,-134L331,-134L331,-4Z" fill="#e1f3c7" stroke="#e1f3c7" stroke-width="1.51"/><path d="M201,903L331,1033L331,903Z" fill="#787e87" stroke="#787e87" stroke-width="1.51"/><path d="M1367,-4L1238,-134L1238,-4Z" fill="#9b91b5" stroke="#9b91b5" stroke-width="1.51"/><path d="M1108,1033L1238,1033L1238,903Z" fill="#172f79" stroke="#172f79" stroke-width="1.51"/><path d="M71,125L71,255L201,125Z" fill="#e7f6b9" stroke="#e7f6b9" stroke-width="1.51"/><path d="M71,514L71,644L201,644Z" fill="#9ebbbe" stroke="#9ebbbe" stroke-width="1.51"/><path d="M1367,-4L1367,-134L1238,-134Z" fill="#968ead" stroke="#968ead" stroke-width="1.51"/><path d="M1497,255L1497,125L1367,125Z" fill="#797e87" stroke="#797e87" stroke-width="1.51"/><path d="M1367,903L1497,774L1367,774Z" fill="#152772" stroke="#152772" stroke-width="1.51"/><path d="M1497,903L1497,774L1367,903Z" fill="#0e2162" stroke="#0e2162" stroke-width="1.51"/><path d="M201,-4L71,125L201,125Z" fill="#f1fab9" stroke="#f1fab9" stroke-width="1.51"/><path d="M71,-4L71,125L201,-4Z" fill="#f7fcc6" stroke="#f7fcc6" stroke-width="1.51"/><path d="M201,903L201,1033L331,1033Z" fill="#7c7f86" stroke="#7c7f86" stroke-width="1.51"/><path d="M71,644L71,774L201,774Z" fill="#9a9db2" stroke="#9a9db2" stroke-width="1.51"/><path d="M1497,-4L1367,-134L1367,-4Z" fill="#8c879d" stroke="#8c879d" stroke-width="1.51"/><path d="M1238,1033L1367,1033L1367,903Z" fill="#12246b" stroke="#12246b" stroke-width="1.51"/><path d="M331,-134L201,-134L201,-4Z" fill="#f0f9c5" stroke="#f0f9c5" stroke-width="1.51"/><path d="M71,903L201,1033L201,903Z" fill="#838288" stroke="#838288" stroke-width="1.51"/><path d="M1497,125L1497,-4L1367,-4Z" fill="#878492" stroke="#878492" stroke-width="1.51"/><path d="M1367,1033L1497,903L1367,903Z" fill="#0a1f5c" stroke="#0a1f5c" stroke-width="1.51"/><path d="M71,255L-58,385L71,385Z" fill="#c0e5c7" stroke="#c0e5c7" stroke-width="1.51"/><path d="M71,385L-58,385L71,514Z" fill="#b0dccb" stroke="#b0dccb" stroke-width="1.51"/><path d="M71,514L-58,514L71,644Z" fill="#a3c7cb" stroke="#a3c7cb" stroke-width="1.51"/><path d="M71,644L-58,644L71,774Z" fill="#9da7be" stroke="#9da7be" stroke-width="1.51"/><path d="M-58,255L-58,385L71,255Z" fill="#ceebc9" stroke="#ceebc9" stroke-width="1.51"/><path d="M-58,385L-58,514L71,514Z" fill="#abd7ce" stroke="#abd7ce" stroke-width="1.51"/><path d="M1497,385L1627,385L1497,255Z" fill="#4b6f89" stroke="#4b6f89" stroke-width="1.51"/><path d="M1497,255L1627,255L1497,125Z" fill="#737c87" stroke="#737c87" stroke-width="1.51"/><path d="M1497,125L1627,125L1497,-4Z" fill="#85828b" stroke="#85828b" stroke-width="1.51"/><path d="M1497,514L1627,385L1497,385Z" fill="#35678c" stroke="#35678c" stroke-width="1.51"/><path d="M1627,514L1627,385L1497,514Z" fill="#2a628c" stroke="#2a628c" stroke-width="1.51"/><path d="M1627,514L1497,514L1497,644Z" fill="#1c558a" stroke="#1c558a" stroke-width="1.51"/><path d="M1627,514L1497,644L1627,644Z" fill="#1a4c87" stroke="#1a4c87" stroke-width="1.51"/><path d="M1627,644L1497,644L1497,774Z" fill="#163a7e" stroke="#163a7e" stroke-width="1.51"/><path d="M71,125L-58,255L71,255Z" fill="#e4f5c3" stroke="#e4f5c3" stroke-width="1.51"/><path d="M201,-134L71,-4L201,-4Z" fill="#f7fcc8" stroke="#f7fcc8" stroke-width="1.51"/><path d="M71,774L71,903L201,903Z" fill="#8d8898" stroke="#8d8898" stroke-width="1.51"/><path d="M-58,774L71,903L71,774Z" fill="#978fad" stroke="#978fad" stroke-width="1.51"/><path d="M-58,125L-58,255L71,125Z" fill="#edf8c6" stroke="#edf8c6" stroke-width="1.51"/><path d="M-58,514L-58,644L71,644Z" fill="#a2bdca" stroke="#a2bdca" stroke-width="1.51"/><path d="M1627,385L1627,255L1497,255Z" fill="#5a7388" stroke="#5a7388" stroke-width="1.51"/><path d="M1627,774L1627,644L1497,774Z" fill="#17327a" stroke="#17327a" stroke-width="1.51"/><path d="M71,-4L-58,125L71,125Z" fill="#f7fcc8" stroke="#f7fcc8" stroke-width="1.51"/><path d="M-58,644L-58,774L71,774Z" fill="#9e9ebd" stroke="#9e9ebd" stroke-width="1.51"/><path d="M1627,255L1627,125L1497,125Z" fill="#797e87" stroke="#797e87" stroke-width="1.51"/><path d="M1497,-4L1497,-134L1367,-134Z" fill="#898498" stroke="#898498" stroke-width="1.51"/><path d="M1497,903L1627,774L1497,774Z" fill="#13256e" stroke="#13256e" stroke-width="1.51"/><path d="M1627,903L1627,774L1497,903Z" fill="#0e2162" stroke="#0e2162" stroke-width="1.51"/><path d="M1627,-4L1497,-134L1497,-4Z" fill="#898498" stroke="#898498" stroke-width="1.51"/><path d="M1367,1033L1497,1033L1497,903Z" fill="#081d58" stroke="#081d58" stroke-width="1.51"/><path d="M71,-4L-58,-4L-58,125Z" fill="#fcfed2" stroke="#fcfed2" stroke-width="1.51"/><path d="M201,-134L71,-134L71,-4Z" fill="#fafdcd" stroke="#fafdcd" stroke-width="1.51"/><path d="M71,903L71,1033L201,1033Z" fill="#85838d" stroke="#85838d" stroke-width="1.51"/><path d="M-58,903L71,1033L71,903Z" fill="#888495" stroke="#888495" stroke-width="1.51"/><path d="M71,-134L-58,-4L71,-4Z" fill="#feffd6" stroke="#feffd6" stroke-width="1.51"/><path d="M-58,774L-58,903L71,903Z" fill="#908aa3" stroke="#908aa3" stroke-width="1.51"/><path d="M1627,125L1627,-4L1497,-4Z" fill="#878492" stroke="#878492" stroke-width="1.51"/><path d="M1497,1033L1627,903L1497,903Z" fill="#081d58" stroke="#081d58" stroke-width="1.51"/><path d="M1627,385L1756,385L1627,255Z" fill="#4b6f89" stroke="#4b6f89" stroke-width="1.51"/><path d="M1627,255L1756,255L1627,125Z" fill="#737c87" stroke="#737c87" stroke-width="1.51"/><path d="M1627,125L1756,125L1627,-4Z" fill="#85828b" stroke="#85828b" stroke-width="1.51"/><path d="M1627,514L1756,385L1627,385Z" fill="#35678c" stroke="#35678c" stroke-width="1.51"/><path d="M1756,514L1756,385L1627,514Z" fill="#2a628c" stroke="#2a628c" stroke-width="1.51"/><path d="M1756,514L1627,514L1627,644Z" fill="#1c558a" stroke="#1c558a" stroke-width="1.51"/><path d="M1756,514L1627,644L1756,644Z" fill="#1a4c87" stroke="#1a4c87" stroke-width="1.51"/><path d="M1756,644L1627,644L1627,774Z" fill="#163a7e" stroke="#163a7e" stroke-width="1.51"/><path d="M-188,255L-188,385L-58,255Z" fill="#ceebc9" stroke="#ceebc9" stroke-width="1.51"/><path d="M-58,255L-188,385L-58,385Z" fill="#c1e6ca" stroke="#c1e6ca" stroke-width="1.51"/><path d="M-58,385L-188,385L-58,514Z" fill="#b1dcce" stroke="#b1dcce" stroke-width="1.51"/><path d="M-58,514L-188,514L-58,644Z" fill="#a4c7cd" stroke="#a4c7cd" stroke-width="1.51"/><path d="M-58,644L-188,644L-58,774Z" fill="#9fa7c1" stroke="#9fa7c1" stroke-width="1.51"/><path d="M-58,774L-188,774L-58,903Z" fill="#988fb0" stroke="#988fb0" stroke-width="1.51"/><path d="M-188,255L-58,255L-58,125Z" fill="#e6f5c6" stroke="#e6f5c6" stroke-width="1.51"/><path d="M-188,385L-188,514L-58,514Z" fill="#abd7ce" stroke="#abd7ce" stroke-width="1.51"/><path d="M1756,385L1756,255L1627,255Z" fill="#5a7388" stroke="#5a7388" stroke-width="1.51"/><path d="M1756,774L1756,644L1627,774Z" fill="#17327a" stroke="#17327a" stroke-width="1.51"/><path d="M-188,125L-188,255L-58,125Z" fill="#edf8c6" stroke="#edf8c6" stroke-width="1.51"/><path d="M-188,514L-188,644L-58,644Z" fill="#a2bdca" stroke="#a2bdca" stroke-width="1.51"/><path d="M1756,255L1756,125L1627,125Z" fill="#797e87" stroke="#797e87" stroke-width="1.51"/><path d="M1627,903L1756,774L1627,774Z" fill="#13256e" stroke="#13256e" stroke-width="1.51"/><path d="M-58,-4L-188,125L-58,125Z" fill="#f9fdcb" stroke="#f9fdcb" stroke-width="1.51"/><path d="M71,-134L-58,-134L-58,-4Z" fill="#ffffd9" stroke="#ffffd9" stroke-width="1.51"/><path d="M-58,903L-58,1033L71,1033Z" fill="#898498" stroke="#898498" stroke-width="1.51"/><path d="M-188,903L-58,1033L-58,903Z" fill="#898498" stroke="#898498" stroke-width="1.51"/><path d="M1756,-4L1627,-134L1627,-4Z" fill="#898498" stroke="#898498" stroke-width="1.51"/><path d="M1627,-4L1627,-134L1497,-134Z" fill="#898498" stroke="#898498" stroke-width="1.51"/><path d="M1627,903L1756,903L1756,774Z" fill="#0e2162" stroke="#0e2162" stroke-width="1.51"/><path d="M1497,1033L1627,1033L1627,903Z" fill="#081d58" stroke="#081d58" stroke-width="1.51"/><path d="M-188,-4L-188,125L-58,-4Z" fill="#fcfed2" stroke="#fcfed2" stroke-width="1.51"/><path d="M-188,644L-188,774L-58,774Z" fill="#9e9ebd" stroke="#9e9ebd" stroke-width="1.51"/><path d="M1756,125L1756,-4L1627,-4Z" fill="#878492" stroke="#878492" stroke-width="1.51"/><path d="M1627,1033L1756,903L1627,903Z" fill="#081d58" stroke="#081d58" stroke-width="1.51"/><path d="M-58,-134L-188,-4L-58,-4Z" fill="#ffffd9" stroke="#ffffd9" stroke-width="1.51"/><path d="M-188,774L-188,903L-58,903Z" fill="#908aa3" stroke="#908aa3" stroke-width="1.51"/><path d="M1756,-4L1756,-134L1627,-134Z" fill="#898498" stroke="#898498" stroke-width="1.51"/><path d="M1627,1033L1756,1033L1756,903Z" fill="#081d58" stroke="#081d58" stroke-width="1.51"/><path d="M-58,-134L-188,-134L-188,-4Z" fill="#ffffd9" stroke="#ffffd9" stroke-width="1.51"/><path d="M-188,903L-188,1033L-58,1033Z" fill="#898498" stroke="#898498" stroke-width="1.51"/></svg>